<?xml version="1.0" encoding="utf-8"?>
<!-- Generator: Adobe Illustrator 18.0.0, SVG Export Plug-In . SVG Version: 6.00 Build 0)  -->
<!DOCTYPE svg PUBLIC "-//W3C//DTD SVG 1.1//EN" "http://www.w3.org/Graphics/SVG/1.1/DTD/svg11.dtd">
<svg version="1.1" id="Layer_1" xmlns="http://www.w3.org/2000/svg" xmlns:xlink="http://www.w3.org/1999/xlink" x="0px" y="0px"
	 viewBox="0 0 175 104.6" enable-background="new 0 0 175 104.6" xml:space="preserve">
<g>
	<path d="M18.9,104.3c-3.3-0.2-6.5-1-9.7-2.3c-3.2-1.3-5.7-3.4-7.6-6.1c-1.9-2.7-2.2-5.7-1-9.1c1.3-3.2,3.1-5.4,5.4-6.6
		C6.2,80,6.5,79.7,7,79.6c0.5-0.2,0.9-0.5,1.3-0.9c0.1-0.1,0.3-0.2,0.4-0.2c-0.1-0.1-0.2-0.3-0.2-0.4c0.4-0.8,0.6-1,0.6-0.6l0.2,0.2
		c0.3-0.1,0.5-0.3,0.6-0.4c0.3,0.1,0.5,0.3,0.6,0.4c-0.3,0.1-0.5,0.3-0.6,0.4c0.1,0,0.3,0.1,0.6,0.4c0.7-0.7,1.1-1.1,1.4-1.2
		c0,0.1,0.1,0.2,0.4,0.2l-0.8,0.8l0.2,0.2c0.1,0,0.3,0,0.6,0c0.1,0,0.3-0.1,0.4-0.4c0.1-0.3,0.4-0.4,0.8-0.4c0,0.1,0.1,0.3,0.2,0.4
		c0.4-0.3,0.9-0.5,1.4-0.7c0.5-0.2,1.1-0.5,1.6-0.9l-0.8-0.4c0-0.3,0.1-0.5,0.4-0.6c0.3-0.1,0.5-0.3,0.6-0.6
		c0.1,0.1,0.2,0.3,0.2,0.4c-0.1,0.1-0.3,0.3-0.4,0.6c0,0.1,0.1,0.3,0.2,0.4c0.8-0.7,1.7-1.5,2.8-2.6c1.1-1.1,2.2-1.7,3.4-1.8
		c0-0.8,0.6-1.7,1.9-2.6c1.3-0.9,2.4-1.6,3.3-2c0-0.3,0.6-0.8,1.9-1.6c1.3-0.8,2.2-1.2,2.7-1.2l0.2,0.2c-0.1,0.4-0.5,0.7-1.2,1
		c-0.7,0.3-1.1,0.5-1.4,0.8H30c-0.4,0.3-0.9,0.7-1.6,1.4c0,0.1,0.1,0.2,0.4,0.2c0.3-0.3,0.5-0.4,0.8-0.4c0.1,0,0.2,0.1,0.2,0.2
		c1.2-0.8,2.3-1.4,3.3-1.9c1-0.5,2-1.3,2.9-2.5c-0.1,0-0.5-0.1-1-0.2c0.4-0.3,1-0.5,1.9-0.7c0.9-0.2,1.6-0.5,2.3-0.9
		c-0.3,0.9-0.3,1.5-0.2,1.6c1.6-1.5,3.4-2.3,5.4-2.5s3.7-1,5.2-2.5c0.1,0,0.2,0.1,0.2,0.2c0.5-0.3,0.9-0.4,1-0.4l0.2-0.4l7.6-2.8
		c0.3,0,0.5,0,0.7,0.1c0.2,0.1,0.5,0.1,0.9,0.1c0.1-0.1,0.5-0.3,1.2-0.6c0,0.3,0.1,0.4,0.2,0.4c-0.1,0-0.3-0.1-0.6-0.2l-10.2,4.6
		c-0.1,0-0.4-0.1-0.8-0.2c-0.4,0.4-1.6,1.1-3.6,2c-2,0.9-3.2,1.3-3.6,1.2c-0.3,0.1-0.7,0.5-1.4,1.2c-0.1-0.1-0.2-0.3-0.2-0.4
		c-0.4,0.3-0.9,0.7-1.6,1.4c-0.1,0-0.3-0.1-0.4-0.2c-0.8,0.5-1.3,0.9-1.4,1.2c-0.3,0-0.4-0.1-0.4-0.2C35,66.8,32.5,68,29.9,69
		s-4.7,2.4-6.3,4.1l-1.2-0.4c0,0.1,0.1,0.5,0.2,1c-0.3,0.3-0.5,0.4-0.8,0.4c-7.4,5.5-12,8.8-13.6,10c-1.2,1.2-2.1,2.5-2.8,3.8
		c-0.7,1.3-0.5,2.8,0.4,4.4c2.8,6.4,13.2,8.4,31.1,6.2c5.4-0.5,12-2.7,19.7-6.4c7.7-3.7,14-10.2,18.7-19.3c1.3-2.7,1.8-5.3,1.3-7.9
		c-0.5-2.6-1.3-4.8-2.5-6.5c-2.3-2.3-4.4-3.9-6.3-4.8c-1.9-0.9-4.3-1.9-7.1-3c-6.1-2.1-12.1-3.4-18-3.9C37,46.2,32.1,45,28.4,43.2
		c-0.1-0.4-0.2-0.7-0.2-0.8c-1.1-0.3-1.7-1.1-1.8-2.6c0.1-0.3,0.4-0.4,0.8-0.4L26.4,39c0.3-1.1,0.4-1.5,0.4-1.4
		c0.9-0.7,1.4-1.3,1.4-1.8c0.7-0.4,1-0.5,1.1-0.4c0.1,0.1,0.1-0.1,0.1-0.8c0.3-0.8,2.4-2.8,6.5-5.9c4.1-3.1,8.1-5.1,12.3-5.9
		c0.3-0.5,0.9-0.9,2-1.2c0.1-0.5,0.7-0.8,1.8-0.8c6.8-3.7,14.2-6.1,22.2-7.2c8-1.1,12.5-0.4,13.3,2c2.4,2,2.9,2.8,1.6,6.3
		c-1.3,3.5-3,5.4-5,5.5c-0.1-0.1-0.2-0.3-0.2-0.4c-0.4,0-0.7,0-0.8,0c-0.1,0-0.3,0-0.4,0c-0.4-0.4-0.8-1.3-1.1-2.7
		c-0.3-1.4-0.4-0.2-0.1-0.3c0.7,0,1.2-0.1,1.5-0.4c0.3-0.3,0.9-0.6,1.7-1c0.7-0.4,1-1.1,1-2c0-0.9-0.7-1.8-2-2.6c-0.4,0-0.7,0-0.9,0
		s-0.4,0-0.7,0c0-0.1,0-0.3,0-0.4c0-0.1,0-0.3,0-0.6c-0.7-0.1-1.5-0.2-2.6-0.2c-0.1,0-4.1,0.7-11.9,2.2c-7.8,1.5-17.4,6.2-29,14.4
		c0,0.1-0.1,0.3-0.2,0.4c-1.2,0.4-2.2,1.2-3.1,2.4c-0.9,1.2-1.1,2.4-0.7,3.6c0.1,0.7,1.8,1.3,4.9,2c3.1,0.7,6.8,1.5,11,2.4
		c4.2,0.9,8.4,1.9,12.8,2.9c4.3,1,7.8,2.1,10.5,3.3c0.4,0,0.7-0.1,0.8-0.4c0,0.3,0,0.5,0,0.8c0,0.1,0.1,0.2,0.3,0.3
		c0.2,0.1,0.4,0.2,0.5,0.3c3.2,2,5.6,4.6,7.2,7.9C84,62.5,84.2,66,83,69.9c-1.2,3.9-3.4,7.8-6.5,12c-3.1,4.1-7,7.9-11.8,11.3
		c-4.7,3.4-10.2,6.1-16.4,8.2c-6.2,2.1-13.2,2.9-20.7,2.5c-0.1,0.4-0.2,0.7-0.2,0.8c-0.1,0-0.3,0-0.6,0
		C24.8,104.6,22.2,104.5,18.9,104.3z M15.5,76.9c-0.3,0-0.5-0.1-0.6-0.4c0.1-0.1,0.3-0.3,0.6-0.4c0,0.1,0,0.3,0,0.4
		C15.5,76.6,15.5,76.7,15.5,76.9z M20.8,72.1c-0.8,0.7-1.4,1.1-1.9,1.3c-0.5,0.2-0.9,0.7-1.3,1.5c-0.3-0.1-0.4-0.2-0.5-0.3
		c-0.1-0.1-0.1-0.2-0.1-0.3c0.4-0.3,0.9-0.7,1.6-1.4C19.3,72.2,20,71.9,20.8,72.1z M28.2,68.1c-0.3,0-0.5,0-0.6,0
		c-0.1,0-0.3,0-0.4,0c-0.4,0.4-0.8,0.7-1.1,0.8c-0.3,0.1-0.6,0.4-0.9,0.8c0.1,0.1,0.2,0.3,0.2,0.4C26.1,69.9,27,69.3,28.2,68.1z
		 M38.4,63.3c0-0.1,0-0.3,0-0.6c-0.3,0-0.5,0.1-0.7,0.2c-0.2,0.1-0.7,0.4-1.5,0.8l0.2,0.4C36.8,63.8,37.5,63.6,38.4,63.3z
		 M64.7,53.7c-0.5,0.3-1.5,0.4-2.8,0.4l0.4-0.4l-0.4-0.6c0.3-0.1,0.6-0.3,0.9-0.6c0.3-0.3,0.7-0.5,1.1-0.8c0,0.1,0.1,0.2,0.2,0.2
		c-0.3,0.4-0.7,0.9-1.4,1.6C63.5,53.5,64.2,53.6,64.7,53.7z M65.9,53.7c-0.1-0.4-0.5-0.7-1-0.8c0.4-0.3,0.8-0.4,1.2-0.4
		c0,0.1,0.1,0.3,0.4,0.6L65.9,53.7z M82.5,49.4c-0.5,0.1-0.8,0.2-1.1,0.3c-0.1,0-0.3-0.1-0.6-0.4l-1.2,0.6c-0.3-0.3-0.5-0.4-0.8-0.4
		c0.5-0.4,1.2-0.6,2.1-0.7c0.9-0.1,1.6-0.2,2.3-0.3c0.1,0.1,0.3,0.3,0.6,0.4C83.4,49.2,83,49.4,82.5,49.4z M98.8,47.5
		c-0.5,0-0.9,0.1-1,0.2L97,47.4c-0.8,0.4-1.9,0.6-3.3,0.7c-1.4,0.1-2.5-0.1-3.3-0.5c-0.9,0.8-2.1,1.1-3.4,0.8c-0.3,0-0.6,0.2-1,0.6
		c0-0.1-0.1-0.3-0.4-0.6c0.4-0.8,1.2-1,2.5-0.7c1.3,0.3,1.9-0.1,1.9-1.3c0.4,0,0.8-0.2,1.2-0.6c0,0.4,0.1,0.6,0.2,0.6
		c-0.5,0-0.9,0.3-1,0.8c1.1,0.3,2.5,0.3,4.3,0C96.5,46.9,97.9,47,98.8,47.5z M86.2,46.8L86,46.4c0.1-0.4,0.4-0.5,0.7-0.4
		c0.3,0.1,0.7,0.2,1.1,0.2v0.4C87.2,46.6,86.6,46.6,86.2,46.8z M97.8,46.2l-0.4,0.4c-0.8-0.1-1.5-0.2-2.2-0.3
		c-0.7-0.1-1.1-0.2-1.4-0.5c0.1,0,0.3-0.2,0.6-0.6c0.4,0.3,0.8,0.3,1.2,0c0.3,0.3,0.4,0.5,0.4,0.6C96.4,45.6,97,45.8,97.8,46.2z"/>
</g>
<g>
	<path d="M81.9,94.4c0-0.1,0-0.2,0-0.3c0-0.1,0-0.2,0-0.3c-0.4,0-0.7,0-0.9-0.1c-0.2-0.1-0.5-0.2-0.9-0.3c0.1,0,0.2-0.1,0.2-0.4
		l-0.2-1.4c0.1,0,0.3,0,0.6,0c0.1-1.7,0.9-3.3,2.2-4.6c0.9-0.8,1.9-2.5,2.8-5c0.9-2.5,1.9-5.2,2.8-8.2c0.9-2.9,1.8-5.8,2.5-8.6
		c0.7-2.8,1.4-5,1.9-6.6c0.4,0,0.4,0.4,0,1.2c-0.4,0.8-0.5,1.1-0.4,0.8c-0.7-0.8-0.7-1.9,0-3.4c0.4,0.1,0.7,0.2,1,0.2
		c0.1-0.7,0.6-2.2,1.3-4.6c0.7-2.4,1.2-4.1,1.3-5c0.1,0,0.3,0,0.6,0c0-0.1,0-0.3,0-0.6c-1.3,0-2.7,0.4-4,1.1c-1.3,0.7-2.7,1.2-4,1.3
		c0,0.1,0,0.3,0,0.6l-2.2,0.6v0.4c-2.4,0-4.6,0.6-6.6,1.9c-2,1.3-4,1.7-6,1.3c0-0.1,0-0.3,0-0.4c-1.6-0.4-1.9-1.2-0.9-2.5
		c1-1.3,2-2,2.9-2.3c0-0.1,0.1-0.3,0.2-0.4c0.9,0.1,1.8,0.1,2.6-0.1s1.5-0.2,2.2-0.1c0.4-0.8,0.5-1.1,0.4-1c0.9,0,1.8-0.1,2.7-0.3
		c0.9-0.2,1.8-0.3,2.7-0.3c0.1-0.3,1.7-1,4.6-2.1c2.9-1.1,4.2-1.3,3.8-0.5c0.1,0,0.7-0.3,1.7-0.9c1-0.6,1.6-0.9,1.9-0.9l1.6-3
		c-0.1,0-0.3-0.1-0.4-0.2c0-0.8,0.3-1.5,1-2.2c0.1,0.1,0.3,0.2,0.4,0.2c0.8-2,1.8-4.7,3-8.2c1.2-3.5,2.2-6.5,3-9.2
		c0.1,0,0.3,0,0.4,0c0-0.4,0.1-0.6,0.3-0.7c0.2-0.1,0.2-0.4-0.1-1.1c-1.7,0.5-3.4,1.2-5,1.9c-1.6,0.7-3.3,1.2-5.2,1.3
		c0,0.1,0,0.4,0,0.8c-2.1,0.4-3.8,1.1-4.9,2.1c-1.1,1-2.5,1.4-4.1,1.3c0,0.1,0,0.2,0,0.3c0,0.1,0,0.2,0,0.3c-0.3,0-0.5,0-0.6,0.1
		c-0.1,0.1-0.3,0.1-0.6,0.1v-0.2c-0.1,0-0.3,0-0.4,0c-0.1,0-0.3,0-0.4,0v0.4c-1.9,0.4-3.2,0.8-4.1,1.3c-0.9,0.5-2,0.8-3.5,1.1
		c0-0.1,0-0.3,0-0.4c-0.5,0-0.9,0-1,0v0.4c-0.7,0-1.1-0.6-1.3-1.9c-0.2-1.3,0.3-2,1.5-2.3c0-0.1,0-0.3,0-0.4c0.3,0,0.5,0,0.7,0
		c0.2,0,0.4,0,0.7,0c0-0.1,0.9-0.6,2.6-1.3c1.7-0.7,3.7-1.5,5.9-2.3c2.2-0.8,4.4-1.5,6.5-2.1c2.1-0.6,3.6-0.9,4.4-0.9
		c0-0.4,0.1-0.6,0.2-0.6c0.1-0.1,0.4-0.2,0.8-0.2V17c0.1,0,0.3,0,0.6,0c0.3,0,0.5,0,0.6,0c0-0.4,0-0.7,0-0.8c0.4,0,0.8,0,1.2,0.1
		c0.4,0.1,0.8,0.1,1.2,0.1c0-0.3,0-0.5,0-0.6c0.8-0.1,3-0.7,6.6-1.8c3.6-1.1,7.4-2.1,11.5-3.2c4.1-1.1,7.7-2,11-2.7
		c3.3-0.7,4.9-1,4.9-0.9c1.9-0.1,3.7-0.6,5.6-1.3c1.9-0.7,3.9-1,6-0.9c0-0.4,0.1-0.6,0.2-0.6c1.7,0.3,3.3,0,4.8-0.8V3.5
		c0.1,0,0.4,0,0.8,0s0.8,0,1.2,0c-0.3,0.1-0.4,0.4-0.4,0.8c0.1,0,0.2,0,0.3,0c0.1,0,0.2,0,0.3,0c0-0.3,0-0.5,0.1-0.6
		c0.1-0.1,0.1-0.3,0.1-0.4c2.7-0.4,4.9-0.9,6.7-1.5c1.8-0.6,3.9-1,6.3-1.3c0-0.1,0-0.3,0-0.4c3.5-0.3,5.3,0.2,5.5,1.4s0,1.8-0.7,1.8
		c-0.4,0.3-0.6,0.5-0.6,0.8c-1.6,0.3-3.7,0.8-6.3,1.7c-2.6,0.9-4.2,1.5-4.9,1.9c0,0.4-0.1,0.7-0.4,0.8c-0.3,0-0.7-0.1-1.2-0.2
		c0-2.4-1.3-2.9-4-1.4c-2.7,1.5-7,2.3-13.2,2.6v0.4c-0.4,0-0.9,0-1.4,0c-0.5,0-1,0-1.4,0l-0.2,0.2c-0.7,0-1.3,0.1-1.8,0.3
		c-0.5,0.2-1,0.3-1.4,0.3c0,0.1-0.1,0.3-0.2,0.4c-0.1,0-0.3,0-0.6,0c-0.3,0-0.5,0-0.6,0c0,0.4-0.7,0.7-2.2,0.8
		c-1.5,0.1-2.4,0.1-2.8,0c-0.1,0.5-0.9,0.8-2.4,0.8V13c-1.2,0.1-2.3,0.3-3.4,0.6c-1.1,0.3-2.1,0.4-3.2,0.4c0,0.4-0.1,0.6-0.4,0.6
		c0-0.1,0-0.2,0-0.3c0-0.1,0-0.2,0-0.3c-0.1,0-0.3,0-0.4,0c-0.3,0.5-0.8,0.9-1.5,1c-0.7,0.1-1.3,0.2-1.7,0.2c0,0.3,0,0.5,0,0.6
		c-0.9,0-2.1,0.2-3.5,0.5c-1.4,0.3-2.2,1-2.5,1.9c0.1,0,0.1,0.3-0.2,1c-0.3,0.7-0.3,1,0,1c-1.6,4.3-2.9,7.5-4,9.7
		c-1.1,2.2-2.2,5.5-3.4,9.9c0.3,0.3,0.5,0.4,0.6,0.4c0.1-0.4,1.9-1,5.3-1.8c3.4-0.8,5.5-1.4,6.3-1.8v-0.2c1.1,0,1.8-0.2,2.3-0.5
		c0.5-0.3,1.2-0.4,2.3-0.3c0-0.4,0.1-0.7,0.2-1c0.4,0,0.6,0.3,0.6,0.8c0.1,0,0.3-0.1,0.4-0.2c0-0.4,0.1-0.7,0.2-0.8
		c1.6-0.3,3.1-0.6,4.4-1c1.3-0.4,2.7-0.6,4.2-0.6c0-0.5,0.3-0.8,1-0.8c0.3-0.1,0.4-0.3,0.4-0.6c3.2-0.5,6.5-1.2,10-1.9
		c3.5-0.7,6.5-1,9.2-0.9c0-0.1,0-0.2,0.1-0.3c0.1-0.1,0.1-0.2,0.1-0.3c0.1,0,0.3,0.2,0.4,0.6c1.3,0.3,2,1,2,2.3
		c0,1.3-0.7,2.1-2.2,2.5l-0.2-0.4c-0.8,0.4-1.7,0.5-2.6,0.4c-0.9-0.1-1.8-0.2-2.6-0.2v0.2c-0.7,0.3-1.6,0.4-2.7,0.3
		c-1.1-0.1-1.8,0.2-1.9,0.7c-0.3-0.1-0.4-0.3-0.4-0.4c-0.1,0-0.3,0-0.4,0v0.4c-8.8,1.1-13.4,2.1-13.8,3c-1.2,0.3-3.3,0.8-6.2,1.6
		c-2.9,0.8-4.4,1.4-4.4,1.8c-2.4,0-4.8,0.4-7.3,1.3c-2.5,0.9-4.7,1.7-6.7,2.5c0,0.1,0,0.3,0,0.6c-0.1,0-0.3,0-0.6,0
		c-0.4,0.8-0.8,1.4-1.1,1.9c-0.3,0.5-0.6,1.1-0.7,1.9c-0.3,0-0.5,0-0.8,0c0,0.7-0.5,2.7-1.6,6c-1.1,3.3-1.9,5-2.4,5
		c-0.3,3.2-1.5,7.7-3.6,13.6c-2.1,5.9-2.9,9.9-2.2,12.2c-0.3,0-0.5,0-0.8,0c-0.3,0.8-0.5,1.5-0.8,2c-0.3,0.5-0.4,1.1-0.4,1.6
		c-0.1,0-0.3,0-0.6,0c-0.4,1.7-0.9,3-1.6,3.9C85.4,93.9,84,94.4,81.9,94.4z M112.8,15.8c0.1,0,0.3-0.1,0.6-0.2
		c0.3-0.1,0.5-0.2,0.8-0.2c0-0.1,0-0.3,0-0.4c-0.3,0.1-0.6,0.2-0.9,0.3c-0.3,0.1-0.6,0.1-0.7,0.1C112.6,15.7,112.7,15.8,112.8,15.8z
		 M117.4,13.8c-0.1,0.1-0.3,0.2-0.4,0.2c0,0.1,0,0.4,0,0.8C117.1,14.7,117.3,14.4,117.4,13.8z M117.2,39.2c1.1-0.3,2.2-0.6,3.5-1
		c1.3-0.4,2.4-0.6,3.5-0.6v-0.4c0.4,0,0.8,0.1,1.2,0.2c-0.3-0.3-0.4-0.5-0.4-0.8c0,0.3-0.1,0.4-0.2,0.4c-0.5-0.4-1.9-0.3-4.2,0.3
		C118.3,37.9,117.2,38.5,117.2,39.2z M120.6,14l-0.2-0.4l-1,0.4l0.2,0.2C119.8,14.1,120.2,14,120.6,14z M122.2,12.9
		c0.1-0.1,0.3-0.1,0.4-0.1c-0.1-0.1-0.5-0.1-1,0l0.2,0.2C121.9,13,122,13,122.2,12.9z M126.2,12.3c0.4-0.2,1.2-0.4,2.4-0.5l0.2,0.2
		c0-0.3,0-0.5,0-0.6c-0.7,0-1.4,0.1-2.3,0.4c-0.9,0.3-1.6,0.3-2.1,0.2c0,0.1,0,0.3,0,0.6C125.2,12.6,125.8,12.5,126.2,12.3z
		 M127,36.5c0.4-0.1,0.8-0.2,1.2-0.3c-0.4,0-0.8,0-1.2,0c-0.4,0-0.8,0-1.2,0c0,0.1,0,0.3,0,0.4C126.2,36.6,126.6,36.5,127,36.5z
		 M129.6,11.8c0-0.1,0.2-0.3,0.7-0.5c0.5-0.2,0.8-0.4,0.9-0.5c-0.1-0.1-0.8-0.1-2,0c0,0.4-0.1,0.7-0.2,0.8
		C129.1,11.6,129.3,11.7,129.6,11.8z M136.3,10c-0.3,0-0.5,0-0.7-0.1c-0.2-0.1-0.4-0.1-0.5-0.1c0,0.3,0,0.5,0,0.6
		c-0.3,0-0.5,0-0.6,0V10c-0.1-0.1-0.2,0.1-0.2,0.6c-0.1,0-0.3,0-0.6,0v0.2C134.8,10.7,135.7,10.4,136.3,10z M136.5,8.2
		c0.3,0.1,0.5,0.2,0.6,0.2C136.7,7.8,136.5,7.7,136.5,8.2z M136.9,10c0.1,0,0.3,0,0.4,0l0.4-1.2l-1.2,0.6c0,0.1,0,0.3,0,0.6
		C136.7,10,136.8,10,136.9,10z M140.3,9.4c0.3-0.3,0.5-0.5,0.6-0.8h-0.6c0,0.1,0,0.3,0,0.4C140.3,9.2,140.3,9.3,140.3,9.4z M141.5,9
		l1-0.4c-0.5-0.1-0.9-0.4-1.2-0.8C141.4,8.2,141.5,8.6,141.5,9z"/>
</g>
</svg>
